<svg xmlns="http://www.w3.org/2000/svg" width="504.396" height="504.396" viewBox="0 0 133.455 133.455"><g transform="matrix(1.13886 0 0 .91727 -43.587 -67.753)"><path d="M351.06-13.927c-1.563.835-64.102 67.177-64.102 67.177l3.353 3.579 67.434-63.114z" style="fill:#520;stroke:none;stroke-width:1.01588;stroke-linecap:round;stroke-linejoin:bevel" transform="matrix(.96593 -.31814 .21056 .96593 -194.275 206.969)"/><path d="M331.488-28.62c-1.292 1.21-44.53 81.478-44.53 81.478l4.165 2.59 48.8-78.417z" style="fill:#520;stroke:none;stroke-width:1.01588;stroke-linecap:round;stroke-linejoin:bevel" transform="matrix(.96593 -.31814 .21056 .96593 -194.275 206.969)"/><path d="M150.394 160.764H44.898a52.916 39.256 0 0 0 52.749 37.355 52.916 39.256 0 0 0 52.747-37.355z" style="fill:#ececec;stroke:none;stroke-width:.538218;stroke-linecap:round;stroke-linejoin:bevel"/><path d="M97.596 110.058a52.916 68.935 0 0 0-52.749 65.596h105.599a52.916 68.935 0 0 0-52.85-65.596Z" style="fill:#fca;stroke:none;stroke-width:.713217;stroke-linecap:round;stroke-linejoin:bevel"/><path d="M155.455 160.764H38.273a58.591 58.591 0 0 0 58.59 58.592 58.591 58.591 0 0 0 58.592-58.592z" style="fill:#4d4d4d;stroke:none;stroke-width:.627379;stroke-linecap:round;stroke-linejoin:bevel"/><path d="M99.325 214.844c27.375 0 49.567-22.192 49.567-49.568-8.355 27.644-26.767 41.594-49.567 49.568z" style="fill:#666;stroke:none;stroke-width:.53075;stroke-linecap:round;stroke-linejoin:bevel"/><circle cx="89.958" cy="152.929" r=".08" style="fill:#666;stroke:#000;stroke-width:.264583"/></g></svg>