<?xml version="1.0" encoding="UTF-8" standalone="no"?>
<!-- Created with Inkscape (http://www.inkscape.org/) -->

<svg
   width="133.45468mm"
   height="133.45468mm"
   viewBox="0 0 133.45469 133.45469"
   version="1.1"
   id="svg1"
   inkscape:version="1.3.2 (091e20ef0f, 2023-11-25)"
   sodipodi:docname="logo.svg"
   xmlns:inkscape="http://www.inkscape.org/namespaces/inkscape"
   xmlns:sodipodi="http://sodipodi.sourceforge.net/DTD/sodipodi-0.dtd"
   xmlns="http://www.w3.org/2000/svg"
   xmlns:svg="http://www.w3.org/2000/svg">
  <sodipodi:namedview
     id="namedview1"
     pagecolor="#ffffff"
     bordercolor="#000000"
     borderopacity="0.25"
     inkscape:showpageshadow="2"
     inkscape:pageopacity="0.0"
     inkscape:pagecheckerboard="0"
     inkscape:deskcolor="#d1d1d1"
     inkscape:document-units="mm"
     inkscape:zoom="1"
     inkscape:cx="316.5"
     inkscape:cy="705.5"
     inkscape:window-width="1920"
     inkscape:window-height="1011"
     inkscape:window-x="0"
     inkscape:window-y="32"
     inkscape:window-maximized="1"
     inkscape:current-layer="g5" />
  <defs
     id="defs1" />
  <g
     inkscape:label="Layer 1"
     inkscape:groupmode="layer"
     id="layer1"
     transform="translate(-38.272658,-73.819446)">
    <g
       id="g8"
       transform="matrix(1.2667761,0,0,1.0305686,-10.210232,-2.3022645)">
      <g
         id="g9"
         transform="matrix(0.89902373,0,0,0.8900575,3.8646306,8.1207704)"
         inkscape:export-filename="g9.svg"
         inkscape:export-xdpi="36.542744"
         inkscape:export-ydpi="36.542744">
        <g
           id="g7"
           transform="matrix(0.96592583,-0.31814067,0.21055874,0.96592583,-194.27544,206.96864)">
          <path
             style="fill:#552200;stroke:none;stroke-width:1.01588;stroke-linecap:round;stroke-linejoin:bevel"
             d="m 351.05927,-13.927334 c -1.56209,0.834928 -64.10096,67.177033 -64.10096,67.177033 l 3.35227,3.579271 67.43408,-63.1143163 z"
             id="path5-2"
             sodipodi:nodetypes="ccccc" />
          <path
             style="fill:#552200;stroke:none;stroke-width:1.01588;stroke-linecap:round;stroke-linejoin:bevel"
             d="m 331.48839,-28.620115 c -1.29277,1.210777 -44.53008,81.47858 -44.53008,81.47858 l 4.16443,2.589679 48.80113,-78.416972 z"
             id="path5-2-3"
             sodipodi:nodetypes="ccccc" />
        </g>
        <path
           id="path4"
           style="fill:#ececec;stroke:none;stroke-width:0.538218;stroke-linecap:round;stroke-linejoin:bevel"
           d="M 150.39431,160.76367 H 44.89837 a 52.915843,39.256341 0 0 0 52.74851,37.35515 52.915843,39.256341 0 0 0 52.74743,-37.35515 z" />
        <path
           id="path6"
           style="fill:#ffccaa;stroke:none;stroke-width:0.713217;stroke-linecap:round;stroke-linejoin:bevel"
           d="m 97.59555,110.05829 a 52.915843,68.934543 0 0 0 -52.74851,65.59603 h 105.5986 A 52.915843,68.934543 0 0 0 97.59555,110.05829 Z" />
        <path
           id="path1"
           style="fill:#4d4d4d;stroke:none;stroke-width:0.627379;stroke-linecap:round;stroke-linejoin:bevel"
           d="M 155.45517,160.7639 H 38.27266 a 58.591194,58.591194 0 0 0 58.59071,58.5918 58.591194,58.591194 0 0 0 58.5918,-58.5918 z" />
        <path
           id="path3"
           style="fill:#666666;stroke:none;stroke-width:0.53075;stroke-linecap:round;stroke-linejoin:bevel"
           d="m 99.32458,214.8435 c 27.37542,2.8e-4 49.56768,-22.19196 49.56738,-49.56739 -8.35499,27.6441 -26.76711,41.59344 -49.56738,49.56739 z"
           sodipodi:nodetypes="ccc"
           inkscape:export-filename="logo.svg"
           inkscape:export-xdpi="96"
           inkscape:export-ydpi="96" />
        <circle
           id="path8"
           style="fill:#666666;stroke:#000000;stroke-width:0.264583"
           cx="89.958328"
           cy="152.92917"
           r="0.07991942" />
      </g>
    </g>
  </g>
</svg>
